# xmcd CD database file
#
# Track frame offsets:
#	150
#	12743
#	24845
#	40028
#	49145
#	62575
#	75428
#	88143
#	104520
#	121910
#	134895
#	149445
#	162775
#	180255
#
# Disc length: 2565 seconds
#
# Revision: 0
# Processed by: cddbd v1.5.2PL0 Copyright (c) Steve Scherf et al.
# Submitted via: CDex 1.70beta2
#
DISCID=b60a030e
DTITLE=Elvin Bishop - The Elvin Bishop Group - Party Till The Cows Come Home CD 2
DYEAR=1969
DGENRE=Blues
TTITLE0=Rock My Soul
TTITLE1=Holler And Shout
TTITLE2=Let It Shine
TTITLE3=Don't Mind If I Do
TTITLE4=Rock Bottom
TTITLE5=Last Mile
TTITLE6=Have A Good Time
TTITLE7=Wings Of A Bird
TTITLE8=Old Man Trouble
TTITLE9=Out Behind The Barn
TTITLE10=Stomp
TTITLE11=Stealin' Watermelons
TTITLE12=So Fine (Live)
TTITLE13=Party Till The Cows Come Home (Live)
EXTD=YEAR: 1969
EXTT0=
EXTT1=
EXTT2=
EXTT3=
EXTT4=
EXTT5=
EXTT6=
EXTT7=
EXTT8=
EXTT9=
EXTT10=
EXTT11=
EXTT12=
EXTT13=
PLAYORDER=
